<?xml version="1.0" encoding="utf-8"?><!-- Uploaded to: SVG Repo, www.svgrepo.com, Generator: SVG Repo Mixer Tools -->
<svg width="800px" height="800px" viewBox="0 0 24 24" fill="none" xmlns="http://www.w3.org/2000/svg">
<path fill-rule="evenodd" clip-rule="evenodd" d="M11.556 22.646C12.3525 23.0443 13.3186 22.6649 13.6313 21.8311L16.193 15L20 15C21.6568 15 23 13.6569 23 12L23 4C23 2.34315 21.6568 1 20 1L5.62625 1C4.20523 1 2.97914 1.99698 2.68931 3.38814L1.02265 11.3881C0.634535 13.2511 2.05665 15 3.95959 15H9.11255L8.37409 17.2154C7.7446 19.1039 8.59952 21.1678 10.38 22.058L11.556 22.646ZM14.3203 14.2978L11.9537 20.6088L11.2744 20.2692C10.3842 19.8241 9.95671 18.7921 10.2715 17.8479L11.0099 15.6325C11.4416 14.3374 10.4777 13 9.11256 13H3.95959C3.32527 13 2.85124 12.417 2.98061 11.7961L3.14645 11L6.99998 11C7.55226 11 7.99998 10.5523 7.99998 10C7.99998 9.44772 7.55226 9.00001 6.99998 9.00001L3.56312 9.00001L3.97978 7.00001L6.99998 7.00001C7.55226 7.00001 7.99998 6.55229 7.99998 6.00001C7.99998 5.44772 7.55226 5.00001 6.99998 5.00001L4.39645 5.00001L4.64727 3.79605C4.74388 3.33233 5.15258 3 5.62625 3L16 3L16 13.0093C15.2458 13.0821 14.5903 13.5779 14.3203 14.2978ZM18 13H20C20.5523 13 21 12.5523 21 12L21 4C21 3.44772 20.5523 3 20 3L18 3L18 13Z" fill="#0F0F0F"/>
</svg>